<svg width="24" height="24" viewBox="0 0 24 24" fill="none" xmlns="http://www.w3.org/2000/svg">
<path d="M20.5151 9.95518L17.7382 13.5095L17.5554 13.7434L17.5823 14.0391L17.8409 16.8833L16.6919 17.7514L16.4336 17.9466L16.3985 18.2685L16.2269 19.8418L14.2576 22.0642L12.6329 22.3299L11.0623 17.7423L11.7514 15.9907L11.8805 15.6625L11.7102 15.3538L10.2779 12.7576L10.6897 11.2748L10.9058 10.497L10.1142 10.3387L7.80962 9.87778L7.66015 9.84789L7.51086 9.87872L4.90094 10.4177L2.75 8.05166V6.12975L5.85247 2.14091L9.1175 1.80131L9.55037 2.73197L9.73742 3.13414L10.18 3.16397L15.6397 3.53204L19.1601 9.66948L19.4123 10.1092L19.9144 10.0391L20.5151 9.95518Z" stroke="#201812" stroke-width="1.5"/>
<path d="M21.86 5.39192C22.288 6.49592 21.689 7.25192 20.53 7.99792C19.595 8.59792 18.404 9.24992 17.142 10.3629C15.904 11.4539 14.697 12.7689 13.624 14.0629C12.706 15.1738 11.832 16.3204 11.004 17.4999C10.59 18.0909 10.011 18.9729 10.011 18.9729C9.80322 19.2939 9.51707 19.5566 9.17956 19.7363C8.84205 19.916 8.46431 20.0067 8.082 19.9999C7.69991 19.9977 7.32474 19.8977 6.99218 19.7095C6.65962 19.5214 6.38072 19.2513 6.182 18.9249C5.183 17.2479 4.413 16.5849 4.059 16.3479C3.112 15.7099 2 15.6179 2 14.1339C2 12.9549 2.995 11.9999 4.222 11.9999C5.089 12.0319 5.894 12.3729 6.608 12.8529C7.064 13.1589 7.547 13.5649 8.049 14.0979C8.72176 13.1799 9.4214 12.2818 10.147 11.4049C11.304 10.0099 12.67 8.51292 14.135 7.22092C15.575 5.95092 17.24 4.76192 19.005 4.13392C20.155 3.72392 21.433 4.28692 21.86 5.39192Z" fill="#201812"/>
</svg>
