<svg width="40" height="40" viewBox="0 0 40 40" fill="none" xmlns="http://www.w3.org/2000/svg">
<path d="M3.33203 11.6657H8.10703C9.3187 11.6657 10.4804 11.0657 11.337 9.99904C12.5587 8.4757 14.3687 7.94237 16.0104 8.62404L18.332 9.58904M3.33203 26.6107H6.03203C7.96536 26.6107 8.93203 26.6107 9.84536 26.8674L9.9787 26.9074C10.887 27.1824 11.6904 27.7007 13.2987 28.7374C16.4454 30.7657 18.0187 31.779 19.732 31.6557L19.9754 31.6324C21.682 31.429 23.0187 30.1357 25.692 27.549L28.332 24.999" stroke="#201812" stroke-width="3" stroke-linecap="round" stroke-linejoin="round"/>
<path d="M36.6658 12.0557H32.4708C30.6942 12.0557 29.4408 11.0891 28.1658 9.80407C27.377 8.98707 26.3137 8.49077 25.1808 8.41074C23.9425 8.33574 22.5075 8.22741 21.3058 8.55907C19.9675 8.92574 19.0842 9.93407 18.1492 10.9857L15.7375 13.7024C14.7542 14.8091 14.7542 16.6074 15.7375 17.7157C16.5875 18.6724 17.9192 18.8207 18.9192 18.0691C19.6392 17.5291 20.4558 16.6574 21.3042 16.3824C22.2592 16.0741 22.8508 16.7691 23.3908 17.4991L27.2575 22.7224C28.6942 24.6624 29.4108 25.6307 30.3908 26.1491C31.3742 26.6657 32.4942 26.6657 34.7358 26.6657H36.6658" stroke="#201812" stroke-width="3" stroke-linecap="round" stroke-linejoin="round"/>
</svg>
