<svg width="60" height="61" viewBox="0 0 60 61" fill="none" xmlns="http://www.w3.org/2000/svg">
<path fill-rule="evenodd" clip-rule="evenodd" d="M30 5.5C23.0964 5.5 17.5 11.0964 17.5 18C17.5 24.9036 23.0964 30.5 30 30.5C36.9036 30.5 42.5 24.9036 42.5 18C42.5 11.0964 36.9036 5.5 30 5.5ZM22.5 18C22.5 13.8579 25.8579 10.5 30 10.5C34.1421 10.5 37.5 13.8579 37.5 18C37.5 22.1421 34.1421 25.5 30 25.5C25.8579 25.5 22.5 22.1421 22.5 18Z" fill="#201812"/>
<path fill-rule="evenodd" clip-rule="evenodd" d="M30 58C26.1487 58 20.5745 57.1255 16.3886 55.2934C14.3336 54.394 12.2436 53.1068 11.0294 51.2435C10.3908 50.2636 9.98708 49.1093 10.0003 47.8205C10.0134 46.5436 10.4336 45.3202 11.1398 44.182C14.5633 38.664 21.567 33 30 33C38.433 33 45.4367 38.664 48.8602 44.182C49.5664 45.3202 49.9866 46.5436 49.9997 47.8205C50.0129 49.1093 49.6092 50.2636 48.9706 51.2435C47.7564 53.1068 45.6664 54.394 43.6114 55.2934C39.4254 57.1255 33.8512 58 30 58ZM15.3885 46.818C15.0593 47.3486 15.0019 47.6893 15.0001 47.8719C14.9983 48.0426 15.0422 48.2432 15.2184 48.5137C15.6338 49.1512 16.6427 49.9467 18.3933 50.7129C21.8186 52.2121 26.6831 53 30 53C33.3169 53 38.1814 52.2121 41.6067 50.7129C43.3573 49.9467 44.3662 49.1512 44.7816 48.5137C44.9578 48.2432 45.0017 48.0426 45 47.8719C44.9981 47.6893 44.9407 47.3486 44.6115 46.818C41.8062 42.2964 36.2108 38 30 38C23.7892 38 18.1939 42.2964 15.3885 46.818Z" fill="#201812"/>
</svg>
