<svg width="24" height="24" viewBox="0 0 24 24" fill="none" xmlns="http://www.w3.org/2000/svg">
<path d="M3.77777 11.9422C2.82977 10.2902 2.37177 8.94016 2.09577 7.57216C1.68777 5.54816 2.62177 3.57116 4.16877 2.30916C4.82277 1.77616 5.57277 1.95916 5.95977 2.65216L6.83277 4.21916C7.52477 5.46116 7.87076 6.08116 7.80276 6.73916C7.73376 7.39816 7.26677 7.93416 6.33377 9.00616L3.77777 11.9422ZM3.77777 11.9422C5.69677 15.2882 8.70777 18.3022 12.0578 20.2222M12.0578 20.2222C13.7108 21.1702 15.0598 21.6282 16.4278 21.9042C18.4518 22.3122 20.4288 21.3782 21.6898 19.8312C22.2238 19.1772 22.0408 18.4272 21.3478 18.0402L19.7808 17.1672C18.5388 16.4752 17.9188 16.1292 17.2608 16.1972C16.6018 16.2662 16.0658 16.7332 14.9938 17.6662L12.0578 20.2222ZM11.9998 7.00016H12.8568C13.2608 7.00016 13.4628 7.00016 13.5888 7.12216C13.7138 7.24416 13.7138 7.44116 13.7138 7.83316C13.7138 8.61916 13.7138 9.01216 13.4638 9.25616C13.2718 9.44216 12.9928 9.48616 12.5138 9.49616C12.2688 9.50216 12.1468 9.50516 12.0738 9.57816C12.0008 9.65116 11.9998 9.76716 11.9998 10.0002V11.1672C11.9998 11.5602 11.9998 11.7562 12.1258 11.8782C12.2508 12.0002 12.4528 12.0002 12.8568 12.0002H13.7138M17.9998 7.00016V9.50016M17.9998 9.50016H16.5428C16.2198 9.50016 16.0578 9.50016 15.9578 9.40216C15.8578 9.30516 15.8578 9.14816 15.8578 8.83316V7.00016M17.9998 9.50016V12.0002" stroke="#201812" stroke-width="1.5" stroke-linecap="round" stroke-linejoin="round"/>
<path d="M10 4.30541C10.0887 4.20541 10.181 4.10741 10.277 4.01141C10.9271 3.36362 11.7005 2.85272 12.5514 2.5089C13.4023 2.16508 14.3135 1.99531 15.2311 2.00962C16.1488 2.02394 17.0542 2.22206 17.894 2.59226C18.7338 2.96246 19.4908 3.49724 20.1204 4.16499C20.75 4.83275 21.2393 5.61992 21.5595 6.48001C21.8797 7.3401 22.0243 8.25564 21.9846 9.17253C21.9449 10.0894 21.7219 10.9891 21.3286 11.8183C20.9354 12.6475 20.3799 13.3895 19.695 14.0004" stroke="#201812" stroke-width="1.5" stroke-linecap="round" stroke-linejoin="round"/>
</svg>
