<svg width="40" height="40" viewBox="0 0 40 40" fill="none" xmlns="http://www.w3.org/2000/svg">
<path d="M31.6487 31.6673H31.6654M31.6487 31.6673C30.612 32.6957 28.732 32.4407 27.412 32.4407C25.792 32.4407 25.012 32.7573 23.857 33.9123C22.8737 34.8957 21.5554 36.6673 19.9987 36.6673C18.442 36.6673 17.1237 34.8957 16.1404 33.9123C14.9837 32.7573 14.2037 32.4407 12.5854 32.4407C11.267 32.4407 9.38536 32.6973 8.34703 31.6673C7.30203 30.6307 7.5587 28.7407 7.5587 27.414C7.5587 25.7357 7.19203 24.964 5.99703 23.7707C4.22036 21.994 3.33203 21.104 3.33203 20.0007C3.33203 18.8973 4.22036 18.0073 5.9987 16.2307C7.06536 15.164 7.5587 14.1073 7.5587 12.5873C7.5587 11.269 7.30203 9.38732 8.33203 8.34898C9.3687 7.30398 11.2587 7.56065 12.5854 7.56065C14.1054 7.56065 15.162 7.06565 16.2287 5.99898C18.0054 4.22232 18.8954 3.33398 19.9987 3.33398C21.102 3.33398 21.992 4.22232 23.7687 6.00065C24.8354 7.06732 25.892 7.56065 27.412 7.56065C28.7304 7.56065 30.612 7.30398 31.6504 8.33398C32.6954 9.37065 32.4387 11.2607 32.4387 12.5873C32.4387 14.2657 32.8054 15.0373 34.0004 16.2307C35.777 18.0073 36.6654 18.8973 36.6654 20.0007C36.6654 21.104 35.777 21.994 33.9987 23.7707C32.8054 24.9657 32.4387 25.7373 32.4387 27.414C32.4387 28.7407 32.6937 30.6307 31.6487 31.6673Z" stroke="#201812" stroke-width="4" stroke-linecap="round" stroke-linejoin="round"/>
<path d="M15 21.489C15 21.489 17 22.5757 18 24.1673C18 24.1673 21 17.9173 25 15.834" stroke="#201812" stroke-width="4" stroke-linecap="round" stroke-linejoin="round"/>
</svg>
