<svg width="20" height="20" viewBox="0 0 20 20" fill="none" xmlns="http://www.w3.org/2000/svg">
<g clip-path="url(#clip0_5904_8294)">
<path d="M15.8302 15.8327H15.8385M15.8302 15.8327C15.3119 16.3468 14.3719 16.2193 13.7119 16.2193C12.9019 16.2193 12.5119 16.3777 11.9344 16.9552C11.4427 17.4468 10.7835 18.3327 10.0052 18.3327C9.22687 18.3327 8.56771 17.4468 8.07604 16.9552C7.49771 16.3777 7.10771 16.2193 6.29854 16.2193C5.63937 16.2193 4.69854 16.3477 4.17937 15.8327C3.65687 15.3143 3.78521 14.3693 3.78521 13.706C3.78521 12.8668 3.60187 12.481 3.00437 11.8843C2.11604 10.996 1.67188 10.551 1.67188 9.99935C1.67188 9.44768 2.11604 9.00268 3.00521 8.11435C3.53854 7.58102 3.78521 7.05268 3.78521 6.29268C3.78521 5.63352 3.65687 4.69268 4.17187 4.17352C4.69021 3.65102 5.63521 3.77935 6.29854 3.77935C7.05854 3.77935 7.58687 3.53185 8.12021 2.99852C9.00854 2.11018 9.45354 1.66602 10.0052 1.66602C10.5569 1.66602 11.0019 2.11018 11.8902 2.99935C12.4235 3.53268 12.9519 3.77935 13.7119 3.77935C14.371 3.77935 15.3119 3.65102 15.831 4.16602C16.3535 4.68435 16.2252 5.62935 16.2252 6.29268C16.2252 7.13185 16.4085 7.51768 17.006 8.11435C17.8944 9.00268 18.3385 9.44768 18.3385 9.99935C18.3385 10.551 17.8944 10.996 17.0052 11.8843C16.4085 12.4818 16.2252 12.8677 16.2252 13.706C16.2252 14.3693 16.3527 15.3143 15.8302 15.8327Z" stroke="#35A42C" stroke-width="1.5" stroke-linecap="round" stroke-linejoin="round"/>
<path d="M7.5 10.7435C7.5 10.7435 8.5 11.2868 9 12.0827C9 12.0827 10.5 8.95768 12.5 7.91602" stroke="#35A42C" stroke-width="1.5" stroke-linecap="round" stroke-linejoin="round"/>
</g>
<defs>
<clipPath id="clip0_5904_8294">
<rect width="20" height="20" fill="white"/>
</clipPath>
</defs>
</svg>
