<svg width="20" height="20" viewBox="0 0 20 20" fill="none" xmlns="http://www.w3.org/2000/svg">
<g clip-path="url(#clip0_6945_7701)">
<path d="M13.3385 4.16602C13.3385 3.38935 13.3385 3.00102 13.4652 2.69518C13.549 2.49283 13.6718 2.30898 13.8266 2.15412C13.9815 1.99926 14.1654 1.87644 14.3677 1.79268C14.6735 1.66602 15.0619 1.66602 15.8385 1.66602C16.6152 1.66602 17.0035 1.66602 17.3094 1.79268C17.5117 1.87644 17.6956 1.99926 17.8504 2.15412C18.0053 2.30898 18.1281 2.49283 18.2119 2.69518C18.3385 3.00102 18.3385 3.38935 18.3385 4.16602V7.49935C18.3385 8.27602 18.3385 8.66435 18.2119 8.97018C18.1281 9.17253 18.0053 9.35639 17.8504 9.51125C17.6956 9.6661 17.5117 9.78892 17.3094 9.87268C17.0035 9.99935 16.6152 9.99935 15.8385 9.99935C15.0619 9.99935 14.6735 9.99935 14.3677 9.87268C14.1654 9.78892 13.9815 9.6661 13.8266 9.51125C13.6718 9.35639 13.549 9.17253 13.4652 8.97018C13.3385 8.66435 13.3385 8.27602 13.3385 7.49935V4.16602ZM13.3385 15.8327C13.3385 15.056 13.3385 14.6677 13.4652 14.3618C13.549 14.1595 13.6718 13.9756 13.8266 13.8208C13.9815 13.6659 14.1654 13.5431 14.3677 13.4593C14.6735 13.3327 15.0619 13.3327 15.8385 13.3327C16.6152 13.3327 17.0035 13.3327 17.3094 13.4593C17.5117 13.5431 17.6956 13.6659 17.8504 13.8208C18.0053 13.9756 18.1281 14.1595 18.2119 14.3618C18.3385 14.6677 18.3385 15.056 18.3385 15.8327C18.3385 16.6093 18.3385 16.9977 18.2119 17.3035C18.1281 17.5059 18.0053 17.6897 17.8504 17.8446C17.6956 17.9994 17.5117 18.1223 17.3094 18.206C17.0035 18.3327 16.6152 18.3327 15.8385 18.3327C15.0619 18.3327 14.6735 18.3327 14.3677 18.206C14.1654 18.1223 13.9815 17.9994 13.8266 17.8446C13.6718 17.6897 13.549 17.5059 13.4652 17.3035C13.3385 16.9977 13.3385 16.6093 13.3385 15.8327ZM1.67188 13.3327C1.67188 11.761 1.67187 10.976 2.16021 10.4877C2.64854 9.99935 3.43354 9.99935 5.00521 9.99935H6.67187C8.24354 9.99935 9.02854 9.99935 9.51687 10.4877C10.0052 10.976 10.0052 11.761 10.0052 13.3327V14.9993C10.0052 16.571 10.0052 17.356 9.51687 17.8443C9.02854 18.3327 8.24354 18.3327 6.67187 18.3327H5.00521C3.43354 18.3327 2.64854 18.3327 2.16021 17.8443C1.67187 17.356 1.67188 16.571 1.67188 14.9993V13.3327ZM1.67188 4.16602C1.67188 3.38935 1.67187 3.00102 1.79854 2.69518C1.8823 2.49283 2.00512 2.30898 2.15998 2.15412C2.31483 1.99926 2.49869 1.87644 2.70104 1.79268C3.00687 1.66602 3.39521 1.66602 4.17187 1.66602H7.50521C8.28187 1.66602 8.67021 1.66602 8.97604 1.79268C9.17839 1.87644 9.36225 1.99926 9.5171 2.15412C9.67196 2.30898 9.79478 2.49283 9.87854 2.69518C10.0052 3.00102 10.0052 3.38935 10.0052 4.16602C10.0052 4.94268 10.0052 5.33102 9.87854 5.63685C9.79478 5.8392 9.67196 6.02306 9.5171 6.17791C9.36225 6.33277 9.17839 6.45559 8.97604 6.53935C8.67021 6.66602 8.28187 6.66602 7.50521 6.66602H4.17187C3.39521 6.66602 3.00687 6.66602 2.70104 6.53935C2.49869 6.45559 2.31483 6.33277 2.15998 6.17791C2.00512 6.02306 1.8823 5.8392 1.79854 5.63685C1.67187 5.33102 1.67188 4.94268 1.67188 4.16602Z" stroke="#E4E7EC" stroke-width="1.5" stroke-linecap="round" stroke-linejoin="round"/>
</g>
<defs>
<clipPath id="clip0_6945_7701">
<rect width="20" height="20" fill="white"/>
</clipPath>
</defs>
</svg>
