<svg width="36" height="36" viewBox="0 0 36 36" fill="none" xmlns="http://www.w3.org/2000/svg">
<g clip-path="url(#clip0_6199_7701)">
<rect width="36" height="36" fill="#A0785A" fill-opacity="0.1"/>
<path d="M28 18C28 23.523 23.523 28 18 28C12.477 28 8 23.523 8 18C8 12.477 12.477 8 18 8C23.523 8 28 12.477 28 18Z" stroke="#A0785A" stroke-width="2" stroke-linecap="round" stroke-linejoin="round"/>
<path d="M20.7058 16.0591C20.6068 15.2961 19.7308 14.0641 18.1558 14.0641C16.3268 14.0641 15.5568 15.0771 15.4008 15.5841C15.1568 16.2621 15.2057 17.6551 17.3507 17.8071C20.0307 17.9971 21.1047 18.3131 20.9687 19.9541C20.8327 21.5951 19.3378 21.9491 18.1568 21.9111C16.9758 21.8731 15.0437 21.3311 14.9688 19.8711M17.9687 12.9961V14.0681M17.9687 21.9011V22.9961" stroke="#A0785A" stroke-width="2" stroke-linecap="round" stroke-linejoin="round"/>
<path d="M12.6016 0.9C12.6016 0.402944 13.0045 0 13.5016 0H36.0016V23.4C36.0016 23.8971 35.5986 24.3 35.1016 24.3C34.6045 24.3 34.2016 23.8971 34.2016 23.4V1.8H13.5016C13.0045 1.8 12.6016 1.39706 12.6016 0.9Z" fill="#A0785A"/>
<path d="M23.3984 35.1C23.3984 35.5971 22.9955 36 22.4984 36H-0.00156212V12.6C-0.00156212 12.1029 0.401382 11.7 0.898438 11.7C1.39549 11.7 1.79844 12.1029 1.79844 12.6V34.2H22.4984C22.9955 34.2 23.3984 34.6029 23.3984 35.1Z" fill="#A0785A"/>
</g>
<defs>
<clipPath id="clip0_6199_7701">
<rect width="36" height="36" fill="white"/>
</clipPath>
</defs>
</svg>
