<svg width="21" height="20" viewBox="0 0 21 20" fill="none" xmlns="http://www.w3.org/2000/svg">
<g clip-path="url(#clip0_5767_7029)">
<mask id="mask0_5767_7029" style="mask-type:luminance" maskUnits="userSpaceOnUse" x="0" y="0" width="21" height="20">
<path d="M10.5 20C16.0228 20 20.5 15.5228 20.5 10C20.5 4.47715 16.0228 0 10.5 0C4.97715 0 0.5 4.47715 0.5 10C0.5 15.5228 4.97715 20 10.5 20Z" fill="white"/>
</mask>
<g mask="url(#mask0_5767_7029)">
<path d="M10.5 0H20.5V2.5L19.25 3.75L20.5 5V7.5L19.25 8.75L20.5 10V12.5L19.25 13.75L20.5 15V17.5L10.5 18.75L0.5 17.5V15L1.75 13.75L0.5 12.5V10L10.5 0Z" fill="#EEEEEE"/>
<path d="M9.25 2.5H20.5V5H9.25V2.5ZM9.25 7.5H20.5V10H10.5L9.25 7.5ZM0.5 12.5H20.5V15H0.5V12.5ZM0.5 17.5H20.5V20H0.5V17.5Z" fill="#D80027"/>
<path d="M0.5 0H10.5V10H0.5V0Z" fill="#0052B4"/>
<path d="M7.80469 9.49219L10.0312 7.89062H7.29688L9.52344 9.49219L8.66406 6.875L7.80469 9.49219ZM4.64062 9.49219L6.86719 7.89062H4.13281L6.35938 9.49219L5.5 6.875L4.64062 9.49219ZM1.47656 9.49219L3.70312 7.89062H0.96875L3.19531 9.49219L2.33594 6.875L1.47656 9.49219ZM7.80469 6.32812L10.0312 4.72656H7.29688L9.52344 6.32812L8.66406 3.71094L7.80469 6.32812ZM4.64062 6.32812L6.86719 4.72656H4.13281L6.35938 6.32812L5.5 3.71094L4.64062 6.32812ZM1.47656 6.32812L3.70312 4.72656H0.96875L3.19531 6.32812L2.33594 3.71094L1.47656 6.32812ZM7.80469 3.125L10.0312 1.52344H7.29688L9.52344 3.125L8.66406 0.507812L7.80469 3.125ZM4.64062 3.125L6.86719 1.52344H4.13281L6.35938 3.125L5.5 0.507812L4.64062 3.125ZM1.47656 3.125L3.70312 1.52344H0.96875L3.19531 3.125L2.33594 0.507812L1.47656 3.125Z" fill="#EEEEEE"/>
</g>
</g>
<defs>
<clipPath id="clip0_5767_7029">
<rect width="20" height="20" fill="white" transform="translate(0.5)"/>
</clipPath>
</defs>
</svg>
