<svg width="15" height="11" viewBox="0 0 15 11" fill="none" xmlns="http://www.w3.org/2000/svg">
<path d="M1.66667 0.5C1.22464 0.5 0.800716 0.662087 0.488155 0.950605C0.175595 1.23912 0 1.63044 0 2.03846V8.96154C0 9.36956 0.175595 9.76088 0.488155 10.0494C0.800716 10.3379 1.22464 10.5 1.66667 10.5H5V0.5H1.66667Z" fill="#00853F"/>
<path d="M5 0.5H10V10.5H5V0.5Z" fill="#FDEF42"/>
<path d="M13.3333 0.5H10V10.5H13.3333C13.7754 10.5 14.1993 10.3379 14.5118 10.0494C14.8244 9.76088 15 9.36956 15 8.96154V2.03846C15 1.63044 14.8244 1.23912 14.5118 0.950605C14.1993 0.662087 13.7754 0.5 13.3333 0.5Z" fill="#E31B23"/>
<path d="M7.86208 4.99L7.5 3.96154L7.13792 4.99H5.96667L6.91417 5.62538L6.5525 6.65385L7.5 6.01846L8.4475 6.65385L8.08583 5.62538L9.03333 4.99H7.86208Z" fill="#00853F"/>
</svg>
