<svg width="72" height="72" viewBox="0 0 72 72" fill="none" xmlns="http://www.w3.org/2000/svg">
<path d="M22.5 27C24.9853 27 27 24.9853 27 22.5C27 20.0147 24.9853 18 22.5 18C20.0147 18 18 20.0147 18 22.5C18 24.9853 20.0147 27 22.5 27Z" stroke="#201812" stroke-width="4" stroke-linecap="round" stroke-linejoin="round"/>
<path d="M7.5 36C7.5 22.566 7.5 15.846 11.673 11.673C15.846 7.5 22.563 7.5 36 7.5C49.434 7.5 56.154 7.5 60.327 11.673C64.5 15.846 64.5 22.563 64.5 36C64.5 49.434 64.5 56.154 60.327 60.327C56.154 64.5 49.437 64.5 36 64.5C22.566 64.5 15.846 64.5 11.673 60.327C7.5 56.154 7.5 49.437 7.5 36Z" stroke="#201812" stroke-width="4" stroke-linecap="round" stroke-linejoin="round"/>
<path d="M15 63.0005C28.116 47.3255 42.822 26.6525 64.494 40.6265" stroke="#201812" stroke-width="4" stroke-linecap="round" stroke-linejoin="round"/>
</svg>
