<svg width="20" height="20" viewBox="0 0 20 20" fill="none" xmlns="http://www.w3.org/2000/svg">
<path fill-rule="evenodd" clip-rule="evenodd" d="M2.49479 5.83333C2.49479 4.91286 3.24098 4.16667 4.16146 4.16667H13.3281C13.7884 4.16667 14.1615 3.79357 14.1615 3.33333C14.1615 2.8731 13.7884 2.5 13.3281 2.5H4.16146C2.32051 2.5 0.828125 3.99238 0.828125 5.83333V15C0.828125 16.8409 2.32051 18.3333 4.16146 18.3333H15.8281C17.6691 18.3333 19.1615 16.8409 19.1615 15V8.33333C19.1615 7.8731 18.7884 7.5 18.3281 7.5C17.8679 7.5 17.4948 7.8731 17.4948 8.33333V12.2077L14.448 8.39918C13.0387 6.63752 10.323 6.75537 9.07159 8.63249L8.1219 10.057C6.98653 9.43387 5.55413 9.78186 4.83439 10.8714L2.49479 14.413V5.83333ZM13.1465 9.44033L17.4948 14.8757V15C17.4948 15.9205 16.7486 16.6667 15.8281 16.6667H7.27565C6.61007 16.6667 6.21308 15.9249 6.58228 15.3711L10.4583 9.55699C11.084 8.61843 12.4419 8.55951 13.1465 9.44033ZM5.19553 14.4466C4.72247 15.1562 4.66871 15.9686 4.91796 16.6667H4.57812C4.11789 16.6667 3.74479 16.2936 3.74479 15.8333V15.7949C3.74479 15.6316 3.79278 15.4719 3.88281 15.3356L6.22502 11.79C6.43733 11.4686 6.83569 11.3408 7.18683 11.4596L5.19553 14.4466Z" fill="#7D9A37"/>
<path d="M4.31396 7.3319C4.71486 7.46553 5.02945 7.78012 5.16308 8.18102C5.29909 8.58903 5.8762 8.58903 6.01221 8.18102C6.14584 7.78012 6.46043 7.46553 6.86133 7.3319C7.26934 7.19589 7.26934 6.61878 6.86133 6.48277C6.46043 6.34914 6.14584 6.03455 6.01221 5.63365C5.8762 5.22564 5.29909 5.22564 5.16308 5.63365C5.02945 6.03455 4.71486 6.34914 4.31396 6.48277C3.90595 6.61878 3.90595 7.19589 4.31396 7.3319Z" fill="#7D9A37"/>
<path d="M17.4948 3.33333C17.4948 2.8731 17.1217 2.5 16.6615 2.5C16.2012 2.5 15.8281 2.8731 15.8281 3.33333V4.16667H14.9948C14.5346 4.16667 14.1615 4.53976 14.1615 5C14.1615 5.46024 14.5346 5.83333 14.9948 5.83333H15.8281V6.66667C15.8281 7.1269 16.2012 7.5 16.6615 7.5C17.1217 7.5 17.4948 7.1269 17.4948 6.66667V5.83333H18.3281C18.7884 5.83333 19.1615 5.46024 19.1615 5C19.1615 4.53976 18.7884 4.16667 18.3281 4.16667H17.4948V3.33333Z" fill="#7D9A37"/>
</svg>
