<svg width="40" height="40" viewBox="0 0 40 40" fill="none" xmlns="http://www.w3.org/2000/svg">
<path fill-rule="evenodd" clip-rule="evenodd" d="M20.59 1.36646C20.4042 1.28199 20.2026 1.23828 19.9985 1.23828C19.7945 1.23828 19.5928 1.28199 19.4071 1.36646L11.9128 4.77789L19.9928 8.45789L28.0785 4.77503L20.59 1.36646ZM10.57 16.0293V7.3036L18.57 10.9465V20.5893L11.4014 17.3293C11.1518 17.2158 10.9402 17.0329 10.7917 16.8024C10.6433 16.5718 10.5643 16.3035 10.5642 16.0293H10.57ZM21.4271 35.2065V25.6636L29.0042 29.115V38.7579L21.8442 35.4979C21.6879 35.4268 21.5484 35.3281 21.4271 35.2065ZM31.8614 38.7636V29.115L39.87 25.4693V34.1979C39.8699 34.4721 39.7909 34.7404 39.6425 34.9709C39.494 35.2014 39.2824 35.3844 39.0328 35.4979L31.8614 38.7636ZM18.5642 25.6636V35.2179C18.4454 35.3343 18.3071 35.4291 18.1557 35.4979L10.9842 38.7636V29.115L18.5642 25.6636ZM8.1271 29.115V38.7579L0.969955 35.4979C0.720381 35.3844 0.508742 35.2014 0.360301 34.9709C0.21186 34.7404 0.132888 34.4721 0.132812 34.1979V25.4722L8.13281 29.115H8.1271ZM21.4214 20.595V10.9436L29.43 7.29789V16.0293C29.4299 16.3035 29.3509 16.5718 29.2025 16.8024C29.054 17.0329 28.8424 17.2158 28.5928 17.3293L21.4214 20.595ZM29.8442 19.5379C30.03 19.4534 30.2316 19.4097 30.4357 19.4097C30.6397 19.4097 30.8414 19.4534 31.0271 19.5379L38.5128 22.9436L30.4271 26.6265L22.3557 22.9436L29.8471 19.5322L29.8442 19.5379ZM8.96996 19.5379C9.15568 19.4534 9.35735 19.4097 9.56138 19.4097C9.76542 19.4097 9.96708 19.4534 10.1528 19.5379L17.6385 22.9436L9.55567 26.6293L1.47853 22.9436L8.96996 19.5379Z" fill="#201812"/>
</svg>
