<svg width="24" height="24" viewBox="0 0 24 24" fill="none" xmlns="http://www.w3.org/2000/svg">
<g clip-path="url(#clip0_5764_6451)">
<path d="M15.6044 12.0005C15.6044 12.9552 15.2251 13.8709 14.55 14.5461C13.8748 15.2212 12.9592 15.6005 12.0044 15.6005C11.0496 15.6005 10.1339 15.2212 9.45879 14.5461C8.78366 13.8709 8.40438 12.9552 8.40438 12.0005C8.40438 11.7953 8.42597 11.5949 8.46317 11.4005H7.20438V16.1969C7.20438 16.5305 7.47437 16.8005 7.80797 16.8005H16.202C16.3619 16.8002 16.5151 16.7364 16.628 16.6233C16.7409 16.5101 16.8044 16.3567 16.8044 16.1969V11.4005H15.5456C15.5828 11.5949 15.6044 11.7953 15.6044 12.0005ZM12.0044 14.4005C12.3196 14.4004 12.6318 14.3382 12.923 14.2175C13.2142 14.0968 13.4788 13.9199 13.7017 13.6969C13.9245 13.474 14.1013 13.2093 14.2219 12.918C14.3424 12.6267 14.4045 12.3145 14.4044 11.9993C14.4043 11.684 14.3421 11.3719 14.2214 11.0806C14.1007 10.7894 13.9238 10.5248 13.7008 10.302C13.4779 10.0791 13.2132 9.90234 12.9219 9.78177C12.6306 9.66121 12.3184 9.59919 12.0032 9.59927C11.3665 9.59943 10.756 9.8525 10.3059 10.3028C9.85578 10.7531 9.60302 11.3638 9.60318 12.0005C9.60333 12.6371 9.85641 13.2477 10.3067 13.6978C10.757 14.1479 11.3677 14.4006 12.0044 14.4005ZM14.8844 9.48047H16.3232C16.4188 9.48047 16.5105 9.44258 16.5782 9.3751C16.6459 9.30762 16.6841 9.21606 16.6844 9.12047V7.68167C16.6844 7.58587 16.6463 7.494 16.5786 7.42626C16.5108 7.35852 16.419 7.32047 16.3232 7.32047H14.8844C14.7886 7.32047 14.6967 7.35852 14.629 7.42626C14.5612 7.494 14.5232 7.58587 14.5232 7.68167V9.12047C14.5244 9.31847 14.6864 9.48047 14.8844 9.48047ZM12.0044 0.480469C8.94908 0.480469 6.01892 1.69418 3.8585 3.8546C1.69809 6.01502 0.484375 8.94518 0.484375 12.0005C0.484375 15.0558 1.69809 17.9859 3.8585 20.1463C6.01892 22.3068 8.94908 23.5205 12.0044 23.5205C13.5172 23.5205 15.0152 23.2225 16.4129 22.6436C17.8106 22.0646 19.0805 21.2161 20.1502 20.1463C21.22 19.0766 22.0685 17.8067 22.6475 16.409C23.2264 15.0113 23.5244 13.5133 23.5244 12.0005C23.5244 10.4876 23.2264 8.98963 22.6475 7.59196C22.0685 6.19428 21.22 4.92433 20.1502 3.8546C19.0805 2.78487 17.8106 1.93631 16.4129 1.35738C15.0152 0.778442 13.5172 0.480469 12.0044 0.480469ZM18.0044 16.6673C18.0044 17.4005 17.4044 18.0005 16.6712 18.0005H7.33758C6.60438 18.0005 6.00437 17.4005 6.00437 16.6673V7.33367C6.00437 6.60047 6.60438 6.00047 7.33758 6.00047H16.6712C17.4044 6.00047 18.0044 6.60047 18.0044 7.33367V16.6673Z" fill="black"/>
</g>
<defs>
<clipPath id="clip0_5764_6451">
<rect width="24" height="24" fill="white"/>
</clipPath>
</defs>
</svg>
