<svg width="20" height="20" viewBox="0 0 20 20" fill="none" xmlns="http://www.w3.org/2000/svg">
<path d="M5.83203 14.9993C4.30786 15.3427 3.33203 15.8693 3.33203 16.461C3.33203 17.4943 6.31703 18.3327 9.9987 18.3327C13.6804 18.3327 16.6654 17.4943 16.6654 16.461C16.6654 15.8693 15.6895 15.3427 14.1654 14.9993M12.082 7.49935C12.082 8.05188 11.8625 8.58179 11.4718 8.97249C11.0811 9.36319 10.5512 9.58268 9.9987 9.58268C9.44616 9.58268 8.91626 9.36319 8.52556 8.97249C8.13486 8.58179 7.91536 8.05188 7.91536 7.49935C7.91536 6.94681 8.13486 6.41691 8.52556 6.02621C8.91626 5.63551 9.44616 5.41602 9.9987 5.41602C10.5512 5.41602 11.0811 5.63551 11.4718 6.02621C11.8625 6.41691 12.082 6.94681 12.082 7.49935Z" stroke="white" stroke-linecap="round" stroke-linejoin="round"/>
<path d="M11.0453 14.5777C10.7638 14.8485 10.3884 14.9998 9.9978 14.9998C9.6072 14.9998 9.23177 14.8485 8.9503 14.5777C6.37613 12.0835 2.92696 9.29768 4.60863 5.25268C5.51946 3.06518 7.7028 1.66602 9.9978 1.66602C12.2928 1.66602 14.477 3.06602 15.387 5.25268C17.067 9.29185 13.6261 12.0918 11.0453 14.5777Z" stroke="white" stroke-linecap="round" stroke-linejoin="round"/>
</svg>
