<svg width="122" height="26" viewBox="0 0 122 26" fill="none" xmlns="http://www.w3.org/2000/svg">
<g clip-path="url(#clip0_6162_5599)">
<path d="M11.5844 20.4403V19.3573C11.5844 18.9484 11.323 18.6757 10.9022 18.6708C10.6807 18.6683 10.4516 18.7352 10.2923 18.9781C10.1728 18.7873 9.98361 18.6708 9.71972 18.6708C9.5355 18.6708 9.35376 18.7253 9.21186 18.926V18.7154H8.83594V20.4403H9.21684V19.4837C9.21684 19.1838 9.38363 19.0252 9.64006 19.0252C9.88901 19.0252 10.016 19.1887 10.016 19.4812V20.4403H10.3969V19.4837C10.3969 19.1838 10.5711 19.0252 10.8201 19.0252C11.0765 19.0252 11.201 19.1887 11.201 19.4812V20.4403H11.5844ZM17.2207 18.7154H16.6033V18.19H16.2224V18.7154H15.8713V19.0574H16.2224V19.8455C16.2224 20.247 16.3792 20.4849 16.8248 20.4849C16.9891 20.4849 17.1759 20.4353 17.2954 20.351L17.1858 20.0289C17.0738 20.0933 16.9493 20.1255 16.8522 20.1255C16.663 20.1255 16.6033 20.009 16.6033 19.8356V19.0574H17.2207V18.7154ZM20.4347 18.6708C20.2181 18.6708 20.0762 18.7724 19.9766 18.9236V18.7154H19.6032V20.4403H19.9791V19.4737C19.9791 19.1887 20.1035 19.0301 20.35 19.0301C20.4272 19.0301 20.5069 19.04 20.5865 19.0723L20.7035 18.7179C20.6214 18.6857 20.5118 18.6708 20.4347 18.6708ZM15.5726 18.8517C15.3909 18.7327 15.1419 18.6708 14.8656 18.6708C14.4274 18.6708 14.1436 18.879 14.1436 19.2234C14.1436 19.506 14.3527 19.6794 14.7411 19.7315L14.9179 19.7563C15.1245 19.786 15.2216 19.838 15.2216 19.9372C15.2216 20.071 15.0847 20.1454 14.8257 20.1454C14.5643 20.1454 14.3751 20.0611 14.2482 19.9644L14.0714 20.2569C14.278 20.408 14.5395 20.4799 14.8233 20.4799C15.3237 20.4799 15.6149 20.2445 15.6149 19.9174C15.6149 19.615 15.3859 19.4564 15.01 19.4019L14.8332 19.3771C14.6689 19.3548 14.5395 19.3226 14.5395 19.2086C14.5395 19.0822 14.6639 19.0054 14.8706 19.0054C15.0921 19.0054 15.3062 19.0896 15.4108 19.154L15.5726 18.8517ZM25.6751 18.6708C25.4585 18.6708 25.3166 18.7724 25.217 18.9236V18.7154H24.8436V20.4403H25.2195V19.4737C25.2195 19.1887 25.344 19.0301 25.5905 19.0301C25.6677 19.0301 25.7473 19.04 25.827 19.0723L25.944 18.7179C25.8593 18.6857 25.7523 18.6708 25.6751 18.6708ZM20.8156 19.5778C20.8156 20.1007 21.1815 20.4849 21.7392 20.4849C22.0006 20.4849 22.1748 20.4279 22.364 20.2792L22.1823 19.9768C22.0404 20.0784 21.891 20.133 21.7292 20.133C21.428 20.1305 21.2064 19.9124 21.2064 19.5803C21.2064 19.2482 21.428 19.0326 21.7292 19.0277C21.8935 19.0277 22.0404 19.0822 22.1823 19.1838L22.364 18.8814C22.1748 18.7327 22.0006 18.6757 21.7392 18.6757C21.184 18.6708 20.8156 19.0549 20.8156 19.5778ZM24.3482 19.5778V18.7154H23.9723V18.9236C23.8528 18.7674 23.671 18.6708 23.4246 18.6708C22.9391 18.6708 22.5582 19.05 22.5582 19.5778C22.5582 20.1057 22.9391 20.4849 23.4246 20.4849C23.671 20.4849 23.8528 20.3882 23.9723 20.2321V20.4403H24.3482V19.5778ZM22.9441 19.5778C22.9441 19.2755 23.1433 19.0252 23.4694 19.0252C23.7806 19.0252 23.9922 19.2631 23.9922 19.5778C23.9922 19.8926 23.7831 20.1305 23.4694 20.1305C23.1433 20.1305 22.9441 19.8802 22.9441 19.5778ZM18.3932 18.6708C17.8854 18.6708 17.5294 19.04 17.5294 19.5778C17.5294 20.1255 17.9003 20.4849 18.4181 20.4849C18.6795 20.4849 18.9185 20.4204 19.1277 20.242L18.9434 19.9644C18.799 20.0809 18.6123 20.1454 18.4405 20.1454C18.1966 20.1454 17.9775 20.0338 17.9227 19.724H19.2098C19.2123 19.677 19.2173 19.6299 19.2173 19.5803C19.2148 19.04 18.8812 18.6708 18.3932 18.6708ZM18.3883 19.0078C18.6322 19.0078 18.7866 19.159 18.8264 19.4267H17.9277C17.9675 19.1764 18.1194 19.0078 18.3883 19.0078ZM27.8485 19.5778V18.0215H27.4726V18.9236C27.3531 18.7674 27.1713 18.6708 26.9249 18.6708C26.4394 18.6708 26.0585 19.05 26.0585 19.5778C26.0585 20.1057 26.4394 20.4849 26.9249 20.4849C27.1713 20.4849 27.3531 20.3882 27.4726 20.2321V20.4403H27.8485V19.5778ZM28.2891 20.2817C28.3041 20.2817 28.319 20.2841 28.3314 20.2891C28.3439 20.294 28.3563 20.3015 28.3663 20.3114C28.3763 20.3213 28.3837 20.3337 28.3912 20.3461C28.3962 20.3585 28.4012 20.3734 28.4012 20.3882C28.4012 20.4031 28.3987 20.418 28.3912 20.4304C28.3862 20.4427 28.3763 20.4551 28.3663 20.465C28.3563 20.475 28.3439 20.4824 28.3314 20.4898C28.319 20.4948 28.3041 20.4997 28.2891 20.4997C28.2742 20.4997 28.2592 20.4973 28.2443 20.4898C28.2294 20.4849 28.2194 20.475 28.2095 20.465C28.1995 20.4551 28.192 20.4427 28.1846 20.4304C28.1796 20.418 28.1746 20.4031 28.1746 20.3882C28.1746 20.3734 28.1771 20.3585 28.1846 20.3461C28.1895 20.3337 28.1995 20.3213 28.2095 20.3114C28.2194 20.3015 28.2319 20.294 28.2443 20.2891C28.2568 20.2841 28.2717 20.2817 28.2891 20.2817ZM28.2891 20.475C28.3016 20.475 28.3115 20.4725 28.3215 20.4675C28.3314 20.4626 28.3414 20.4576 28.3489 20.4502C28.3563 20.4427 28.3638 20.4328 28.3663 20.4229C28.3713 20.413 28.3738 20.4006 28.3738 20.3907C28.3738 20.3783 28.3713 20.3684 28.3663 20.3585C28.3613 20.3486 28.3563 20.3387 28.3489 20.3312C28.3414 20.3238 28.3314 20.3164 28.3215 20.3139C28.3115 20.3089 28.2991 20.3064 28.2891 20.3064C28.2767 20.3064 28.2667 20.3089 28.2543 20.3139C28.2443 20.3188 28.2344 20.3238 28.2269 20.3312C28.2194 20.3387 28.2119 20.3486 28.2095 20.3585C28.2045 20.3684 28.202 20.3808 28.202 20.3907C28.202 20.4031 28.2045 20.413 28.2095 20.4229C28.2144 20.4328 28.2194 20.4427 28.2269 20.4502C28.2344 20.4576 28.2443 20.465 28.2543 20.4675C28.2642 20.4725 28.2767 20.475 28.2891 20.475ZM28.2941 20.3387C28.3066 20.3387 28.3165 20.3411 28.324 20.3486C28.3314 20.3535 28.3339 20.3634 28.3339 20.3734C28.3339 20.3808 28.3314 20.3882 28.3265 20.3932C28.3215 20.3981 28.3115 20.4031 28.3016 20.4031L28.3339 20.4403H28.3066L28.2767 20.4031H28.2667V20.4403H28.2443V20.3387H28.2941ZM28.2692 20.3585V20.3857H28.2941C28.2991 20.3857 28.3041 20.3857 28.309 20.3833C28.3115 20.3808 28.314 20.3783 28.314 20.3734C28.314 20.3684 28.3115 20.3659 28.309 20.3634C28.3066 20.361 28.3016 20.361 28.2941 20.361H28.2692V20.3585ZM26.4444 19.5778C26.4444 19.2755 26.6435 19.0252 26.9697 19.0252C27.2809 19.0252 27.4925 19.2631 27.4925 19.5778C27.4925 19.8926 27.2834 20.1305 26.9697 20.1305C26.6435 20.1305 26.4444 19.8802 26.4444 19.5778ZM13.7104 19.5778V18.7154H13.3345V18.9236C13.215 18.7674 13.0333 18.6708 12.7868 18.6708C12.3014 18.6708 11.9205 19.05 11.9205 19.5778C11.9205 20.1057 12.3014 20.4849 12.7868 20.4849C13.0333 20.4849 13.215 20.3882 13.3345 20.2321V20.4403H13.7104V19.5778ZM12.3063 19.5778C12.3063 19.2755 12.5055 19.0252 12.8316 19.0252C13.1428 19.0252 13.3544 19.2631 13.3544 19.5778C13.3544 19.8926 13.1453 20.1305 12.8316 20.1305C12.5055 20.1305 12.3063 19.8802 12.3063 19.5778Z" fill="#201812"/>
</g>
<g clip-path="url(#clip1_6162_5599)">
<path d="M21.2667 6.79102H15.9766V16.2851H21.2667V6.79102Z" fill="#FF5F00"/>
<path d="M16.3107 11.5381C16.3107 9.69295 17.1672 7.93168 18.6115 6.79104C15.9917 4.72784 12.1962 5.18074 10.1305 7.81426C8.0648 10.431 8.51825 14.2219 11.1549 16.2851C13.355 18.0129 16.4283 18.0129 18.6283 16.2851C17.1672 15.1445 16.3107 13.3832 16.3107 11.5381Z" fill="#EB001B"/>
<path d="M28.3992 11.5381C28.3992 14.8761 25.6953 17.5767 22.3533 17.5767C20.993 17.5767 19.683 17.1238 18.625 16.2851C21.2449 14.2219 21.6983 10.431 19.6327 7.79748C19.3304 7.42846 18.9945 7.0762 18.625 6.79104C21.2449 4.72784 25.0572 5.18074 27.1061 7.81426C27.9458 8.87102 28.3992 10.1794 28.3992 11.5381Z" fill="#F79E1B"/>
<path d="M27.8363 15.2798V15.0785H27.9203V15.0449H27.7188V15.0785H27.8027V15.2798H27.8363ZM28.2226 15.2798V15.0449H28.1554L28.0882 15.2127L28.021 15.0449H27.9539V15.2798H28.0043V15.0952L28.0714 15.2462H28.1218L28.189 15.0952V15.2798H28.2226Z" fill="#F79E1B"/>
</g>
<path d="M37.7404 16.5V6.56H39.7144L42.7664 12.216H42.7944L45.8464 6.56H47.8204V16.5H45.8604V10.354H45.8324L43.4104 14.624H42.1364L39.7284 10.34H39.7004V16.5H37.7404ZM52.9721 16.626C52.0201 16.626 51.2361 16.2993 50.6201 15.646C50.0134 14.9927 49.7101 14.1433 49.7101 13.098C49.7101 12.0713 50.0134 11.2267 50.6201 10.564C51.2361 9.892 52.0061 9.556 52.9301 9.556C53.7794 9.556 54.4514 9.85467 54.9461 10.452L54.9741 10.438V9.654H56.8081V16.5H55.0581V15.688L55.0301 15.674C54.5354 16.3087 53.8494 16.626 52.9721 16.626ZM53.3221 14.974C53.8074 14.974 54.2181 14.8013 54.5541 14.456C54.8901 14.1107 55.0581 13.6627 55.0581 13.112C55.0581 12.5613 54.8901 12.104 54.5541 11.74C54.2274 11.376 53.8168 11.194 53.3221 11.194C52.8181 11.194 52.3981 11.3713 52.0621 11.726C51.7354 12.0713 51.5721 12.5333 51.5721 13.112C51.5721 13.6627 51.7354 14.1107 52.0621 14.456C52.3888 14.8013 52.8088 14.974 53.3221 14.974ZM61.0433 16.626C59.97 16.626 59.046 16.29 58.2713 15.618L59.1533 14.344C59.7227 14.8667 60.3573 15.128 61.0573 15.128C61.3187 15.128 61.5193 15.0767 61.6593 14.974C61.8087 14.8713 61.8833 14.736 61.8833 14.568C61.8833 14.428 61.7947 14.3113 61.6173 14.218C61.4493 14.1153 61.1273 13.9847 60.6513 13.826C59.9793 13.602 59.4567 13.3267 59.0833 13C58.7193 12.664 58.5373 12.1927 58.5373 11.586C58.5373 10.9793 58.7707 10.4893 59.2373 10.116C59.704 9.74267 60.2967 9.556 61.0153 9.556C61.9393 9.556 62.77 9.84067 63.5073 10.41L62.6113 11.768C62.1167 11.2827 61.5707 11.04 60.9733 11.04C60.8053 11.04 60.656 11.082 60.5253 11.166C60.3947 11.25 60.3293 11.376 60.3293 11.544C60.3293 11.7773 60.6653 12.02 61.3373 12.272C61.7107 12.412 61.986 12.5193 62.1633 12.594C62.3407 12.6593 62.5507 12.762 62.7933 12.902C63.036 13.0327 63.204 13.1633 63.2973 13.294C63.4 13.4247 63.4887 13.5927 63.5633 13.798C63.6473 13.994 63.6893 14.2273 63.6893 14.498C63.6893 15.1327 63.4607 15.646 63.0033 16.038C62.5553 16.43 61.902 16.626 61.0433 16.626ZM67.4597 16.626C66.853 16.626 66.377 16.4347 66.0317 16.052C65.6864 15.66 65.5137 15.0907 65.5137 14.344V11.18H64.7017V9.654H65.5137V7.428L67.3477 7.232V9.654H69.1957V11.18H67.3477V14.078C67.3477 14.386 67.3897 14.61 67.4737 14.75C67.567 14.89 67.721 14.96 67.9357 14.96C68.197 14.96 68.4864 14.8807 68.8037 14.722L69.2657 16.192C68.7337 16.4813 68.1317 16.626 67.4597 16.626ZM76.8219 13.014C76.8219 13.2287 76.8079 13.448 76.7799 13.672H71.9779C72.0899 14.0827 72.3045 14.4047 72.6219 14.638C72.9392 14.8713 73.3265 14.988 73.7839 14.988C74.4745 14.988 75.0299 14.7313 75.4499 14.218L76.6399 15.324C75.9679 16.192 74.9739 16.626 73.6579 16.626C72.6032 16.626 71.7399 16.2993 71.0679 15.646C70.4052 14.9927 70.0739 14.134 70.0739 13.07C70.0739 12.034 70.3959 11.1893 71.0399 10.536C71.6932 9.88267 72.5285 9.556 73.5459 9.556C74.5072 9.556 75.2912 9.88267 75.8979 10.536C76.5139 11.18 76.8219 12.006 76.8219 13.014ZM73.5319 11.152C73.1585 11.152 72.8319 11.2593 72.5519 11.474C72.2812 11.6793 72.0945 11.9733 71.9919 12.356H75.0019C74.7965 11.5533 74.3065 11.152 73.5319 11.152ZM78.5248 16.5V9.654H80.3588V10.648H80.3868C80.9282 9.92 81.6142 9.556 82.4448 9.556H82.5848V11.558C82.4542 11.5487 82.2908 11.544 82.0948 11.544C81.5442 11.544 81.1148 11.712 80.8068 12.048C80.5082 12.3747 80.3588 12.804 80.3588 13.336V16.5H78.5248ZM86.9861 16.626C85.9594 16.626 85.1148 16.2993 84.4521 15.646C83.7894 14.9927 83.4581 14.1433 83.4581 13.098C83.4581 12.0433 83.7894 11.1893 84.4521 10.536C85.1148 9.88267 85.9781 9.556 87.0421 9.556C87.6021 9.556 88.1388 9.66333 88.6521 9.878C89.1654 10.0833 89.5948 10.3867 89.9401 10.788L88.7361 11.922C88.3441 11.4367 87.8214 11.194 87.1681 11.194C86.6174 11.194 86.1694 11.3713 85.8241 11.726C85.4881 12.0713 85.3201 12.524 85.3201 13.084C85.3201 13.6533 85.4881 14.1107 85.8241 14.456C86.1694 14.8013 86.6174 14.974 87.1681 14.974C87.8401 14.974 88.3768 14.7267 88.7781 14.232L89.9681 15.38C89.2961 16.2107 88.3021 16.626 86.9861 16.626ZM94.3826 16.626C93.4306 16.626 92.6466 16.2993 92.0306 15.646C91.4239 14.9927 91.1206 14.1433 91.1206 13.098C91.1206 12.0713 91.4239 11.2267 92.0306 10.564C92.6466 9.892 93.4166 9.556 94.3406 9.556C95.1899 9.556 95.8619 9.85467 96.3566 10.452L96.3846 10.438V9.654H98.2186V16.5H96.4686V15.688L96.4406 15.674C95.9459 16.3087 95.2599 16.626 94.3826 16.626ZM94.7326 14.974C95.2179 14.974 95.6286 14.8013 95.9646 14.456C96.3006 14.1107 96.4686 13.6627 96.4686 13.112C96.4686 12.5613 96.3006 12.104 95.9646 11.74C95.6379 11.376 95.2272 11.194 94.7326 11.194C94.2286 11.194 93.8086 11.3713 93.4726 11.726C93.1459 12.0713 92.9826 12.5333 92.9826 13.112C92.9826 13.6627 93.1459 14.1107 93.4726 14.456C93.7992 14.8013 94.2192 14.974 94.7326 14.974ZM100.242 16.5V9.654H102.076V10.648H102.104C102.645 9.92 103.331 9.556 104.162 9.556H104.302V11.558C104.171 11.5487 104.008 11.544 103.812 11.544C103.261 11.544 102.832 11.712 102.524 12.048C102.225 12.3747 102.076 12.804 102.076 13.336V16.5H100.242ZM108.478 16.626C107.526 16.626 106.742 16.2993 106.126 15.646C105.51 14.9927 105.202 14.1433 105.202 13.098C105.202 12.0713 105.51 11.2267 106.126 10.564C106.742 9.892 107.512 9.556 108.436 9.556C109.304 9.556 109.995 9.85467 110.508 10.452H110.536V6.196H112.356V16.5H110.606V15.66H110.592C110.097 16.304 109.393 16.626 108.478 16.626ZM107.554 14.456C107.881 14.8013 108.301 14.974 108.814 14.974C109.327 14.974 109.752 14.8013 110.088 14.456C110.433 14.1107 110.606 13.6627 110.606 13.112C110.606 12.5613 110.438 12.104 110.102 11.74C109.766 11.376 109.337 11.194 108.814 11.194C108.31 11.194 107.89 11.3713 107.554 11.726C107.227 12.0713 107.064 12.5333 107.064 13.112C107.064 13.6533 107.227 14.1013 107.554 14.456Z" fill="#201812"/>
<defs>
<clipPath id="clip0_6162_5599">
<rect width="19.5652" height="2.47826" fill="white" transform="translate(8.83594 18.0215)"/>
</clipPath>
<clipPath id="clip1_6162_5599">
<rect width="19.5652" height="12.0773" fill="white" transform="translate(8.83594 5.5)"/>
</clipPath>
</defs>
</svg>
