<svg width="20" height="20" viewBox="0 0 20 20" fill="none" xmlns="http://www.w3.org/2000/svg">
<path d="M1.66406 5L7.4249 8.26417C9.54906 9.4675 10.4457 9.4675 12.5699 8.26417L18.3307 5" stroke="white" stroke-width="1.5" stroke-linecap="round" stroke-linejoin="round"/>
<path d="M1.67805 11.231C1.73222 13.7851 1.75972 15.0626 2.70222 16.0085C3.64472 16.9551 4.95639 16.9876 7.58055 17.0535C9.19722 17.0951 10.7989 17.0951 12.4156 17.0535C15.0397 16.9876 16.3514 16.9551 17.2939 16.0085C18.2364 15.0626 18.2639 13.7851 18.3189 11.231C18.3356 10.4093 18.3356 9.59263 18.3189 8.77097C18.2639 6.2168 18.2364 4.9393 17.2939 3.99347C16.3514 3.0468 15.0397 3.0143 12.4156 2.94847C10.8041 2.9078 9.19196 2.9078 7.58055 2.94847C4.95639 3.0143 3.64472 3.0468 2.70222 3.99347C1.75972 4.9393 1.73222 6.2168 1.67722 8.77097C1.65968 9.59087 1.66051 10.4111 1.67805 11.231Z" stroke="white" stroke-width="1.5" stroke-linecap="round" stroke-linejoin="round"/>
</svg>
