<svg width="20" height="20" viewBox="0 0 20 20" fill="none" xmlns="http://www.w3.org/2000/svg">
<path d="M10 18.3327C9.31833 18.3327 8.66667 18.0577 7.36417 17.5077C4.12167 16.1377 2.5 15.4518 2.5 14.2993V5.83268M10 18.3327C10.6817 18.3327 11.3333 18.0577 12.6358 17.5077C15.8783 16.1377 17.5 15.4518 17.5 14.2993V5.83268M10 18.3327V9.46185M5 9.99935L6.66667 10.8327M14.1667 3.33268L5.83333 7.49935M6.93833 8.07518L4.50417 6.89768C3.16833 6.25102 2.5 5.92768 2.5 5.41602C2.5 4.90435 3.16833 4.58102 4.50417 3.93435L6.9375 2.75685C8.44167 2.02935 9.19167 1.66602 10 1.66602C10.8083 1.66602 11.5592 2.02935 13.0617 2.75685L15.4958 3.93435C16.8317 4.58102 17.5 4.90435 17.5 5.41602C17.5 5.92768 16.8317 6.25102 15.4958 6.89768L13.0625 8.07518C11.5583 8.80268 10.8083 9.16602 10 9.16602C9.19167 9.16602 8.44083 8.80268 6.93833 8.07518Z" stroke="#8E97A6" stroke-width="1.5" stroke-linecap="round" stroke-linejoin="round"/>
</svg>
