<svg width="20" height="20" viewBox="0 0 20 20" fill="none" xmlns="http://www.w3.org/2000/svg">
<g clip-path="url(#clip0_5658_199)">
<path d="M3.14944 9.95115C2.35944 8.57448 1.97777 7.44948 1.74777 6.30948C1.40777 4.62282 2.18611 2.97532 3.47527 1.92365C4.02027 1.47948 4.64527 1.63198 4.96777 2.20948L5.69527 3.51531C6.27194 4.55031 6.56027 5.06698 6.50361 5.61531C6.44611 6.16448 6.05694 6.61115 5.27944 7.50448L3.14944 9.95115ZM3.14944 9.95115C4.74861 12.7395 7.25777 15.2511 10.0494 16.8511M10.0494 16.8511C11.4269 17.6411 12.5511 18.0228 13.6911 18.2528C15.3778 18.5928 17.0253 17.8145 18.0761 16.5253C18.5211 15.9803 18.3686 15.3553 17.7911 15.0328L16.4853 14.3053C15.4503 13.7286 14.9336 13.4403 14.3853 13.497C13.8361 13.5545 13.3894 13.9436 12.4961 14.7211L10.0494 16.8511Z" stroke="white" stroke-width="1.5" stroke-linecap="round" stroke-linejoin="round"/>
</g>
<defs>
<clipPath id="clip0_5658_199">
<rect width="20" height="20" fill="white"/>
</clipPath>
</defs>
</svg>
