<svg width="16" height="13" viewBox="0 0 16 13" fill="none" xmlns="http://www.w3.org/2000/svg">
<path d="M1.33594 11.8347H12.0026M2.5526 6.61203C2.36927 6.47869 2.2026 6.31203 2.0026 5.72869C1.9486 5.58403 1.74327 4.8587 1.56927 4.19536C1.4226 3.63536 1.29127 3.12536 1.3526 2.99536C1.4026 2.86203 1.46927 2.76203 1.68594 2.62869C1.81927 2.54669 2.5026 2.37869 2.63594 2.34536C2.76927 2.31203 2.9526 2.29536 3.1026 2.34536C3.38594 2.39536 3.96927 3.24536 4.11927 3.34536C4.18594 3.41203 4.4026 3.60603 4.6526 3.62869C4.83594 3.64536 5.01927 3.59536 5.21927 3.51203C5.4026 3.43603 9.01927 1.67869 9.3526 1.52869C12.0693 0.395361 14.0426 2.25869 14.3426 2.65869C14.6526 3.04536 14.7193 3.16203 14.6359 3.49536C14.5279 3.84536 14.2359 3.91203 14.0693 3.96203C13.9026 4.01203 11.6026 4.62869 10.7026 4.87869C10.5059 4.94269 10.4099 5.07136 10.3859 5.09536C10.2693 5.26203 9.73927 6.39536 9.58927 6.64536C9.48594 6.91203 9.2026 7.24536 8.83594 7.37869C8.4526 7.51203 7.78594 7.66203 7.63594 7.71203C7.48594 7.76203 7.13594 7.86203 7.01927 7.82869C6.86927 7.79536 6.72594 7.64536 6.7926 7.41203C6.85927 7.17869 6.98594 6.52869 7.0026 6.42869C7.01927 6.32869 7.18594 5.91203 7.0026 5.89536C6.96927 5.84536 6.61927 5.99536 6.1026 6.11203C5.7186 6.22003 5.3166 6.32736 5.03594 6.39536C3.9526 6.71203 3.36594 6.79536 3.23594 6.79536C2.98594 6.79536 2.8026 6.76203 2.5526 6.61203Z" stroke="#201812" stroke-width="1.5" stroke-linecap="round" stroke-linejoin="round"/>
</svg>
