<svg width="16" height="17" viewBox="0 0 16 17" fill="none" xmlns="http://www.w3.org/2000/svg">
<path d="M10.3539 11.15H12.5139C13.3659 11.136 14.6693 11.5847 14.6693 13.2034C14.6693 14.8834 13.0613 15.1654 12.5133 15.1654H5.29994C3.62794 15.1654 1.33594 14.826 1.33594 11.9454V5.83336H14.6693V8.8447M11.6706 9.81603L10.5359 10.7627C10.4806 10.8111 10.4358 10.8705 10.4045 10.937C10.3732 11.0035 10.356 11.0758 10.3539 11.1494C10.3521 11.2278 10.3675 11.3057 10.3992 11.3775C10.4309 11.4493 10.478 11.5132 10.5373 11.5647L11.6706 12.4867M1.33994 5.82603L1.95394 4.2927C2.4526 3.10003 2.70194 2.50403 3.20727 2.1687C3.7126 1.83336 4.3606 1.83203 5.65594 1.83203H10.3359C11.6319 1.83203 12.2799 1.83203 12.7853 2.16803C13.2906 2.50336 13.5393 3.09936 14.0386 4.29136L14.6693 5.8287M7.97794 5.8327V1.8327M6.6446 8.49936H9.31127" stroke="black" stroke-width="1.5" stroke-linecap="round" stroke-linejoin="round"/>
</svg>
