<svg width="96" height="97" viewBox="0 0 96 97" fill="none" xmlns="http://www.w3.org/2000/svg">
<path d="M27.7855 90.4203C25.9915 90.4203 24.2764 89.6965 20.8485 88.249C12.3148 84.6434 8.04688 82.8385 8.04688 79.8053V57.5226M27.7855 90.4203C29.5795 90.4203 31.2946 89.6965 34.7225 88.249C43.2562 84.6434 47.5241 82.8385 47.5241 79.8053V57.5226M27.7855 90.4203V67.0739M14.6264 68.4885L19.0128 70.6816M38.7514 50.943L16.8196 61.9089M19.7278 63.4244L13.3215 60.3254C9.80581 58.6235 8.04688 57.7726 8.04688 56.426C8.04688 55.0793 9.80581 54.2284 13.3215 52.5265L19.7256 49.4275C23.6843 47.5129 25.6581 46.5566 27.7855 46.5566C29.9129 46.5566 31.889 47.5129 35.8433 49.4275L42.2495 52.5265C45.7652 54.2284 47.5241 55.0793 47.5241 56.426C47.5241 57.7726 45.7652 58.6235 42.2495 60.3254L35.8455 63.4244C31.8868 65.3391 29.9129 66.2953 27.7855 66.2953C25.6581 66.2953 23.6821 65.3391 19.7278 63.4244Z" stroke="#201812" stroke-width="3.28977" stroke-linecap="round" stroke-linejoin="round"/>
<path d="M69.4574 90.4203C67.6634 90.4203 65.9483 89.6965 62.5204 88.249C53.9867 84.6434 49.7188 82.8385 49.7188 79.8053V57.5226M69.4574 90.4203C71.2514 90.4203 72.9665 89.6965 76.3944 88.249C84.9281 84.6434 89.196 82.8385 89.196 79.8053V57.5226M69.4574 90.4203V67.0739M56.2983 68.4885L60.6847 70.6816M80.4233 50.943L58.4915 61.9089M61.3996 63.4244L54.9934 60.3254C51.4777 58.6235 49.7188 57.7726 49.7188 56.426C49.7188 55.0793 51.4777 54.2284 54.9934 52.5265L61.3974 49.4275C65.3561 47.5129 67.33 46.5566 69.4574 46.5566C71.5848 46.5566 73.5608 47.5129 77.5151 49.4275L83.9214 52.5265C87.4371 54.2284 89.196 55.0793 89.196 56.426C89.196 57.7726 87.4371 58.6235 83.9214 60.3254L77.5173 63.4244C73.5586 65.3391 71.5848 66.2953 69.4574 66.2953C67.33 66.2953 65.3539 65.3391 61.3996 63.4244Z" stroke="#201812" stroke-width="3.28977" stroke-linecap="round" stroke-linejoin="round"/>
<path d="M48.9886 53.1371C47.1946 53.1371 45.4795 52.4024 42.0516 50.9307C33.5179 47.2681 29.25 45.439 29.25 42.3576V21.8777M48.9886 53.1371C50.7827 53.1371 52.4977 52.4024 55.9257 50.9307C64.4593 47.2681 68.7273 45.439 68.7273 42.3576V21.8777M48.9886 53.1371V31.5781M29.25 21.8777C29.25 23.2023 31.0089 24.0401 34.5246 25.7113L40.9287 28.7599C44.8852 30.6394 46.8612 31.5781 48.9886 31.5781M29.25 21.8777C29.25 20.553 31.0089 19.7196 34.5246 18.0462M68.7273 21.8777C68.7273 23.2001 66.9683 24.0379 63.4527 25.7113L57.0486 28.7599C53.0899 30.6372 51.116 31.5781 48.9886 31.5781M68.7273 21.8777C68.7273 20.553 66.9683 19.7174 63.4527 18.044M36.5577 34.0805L40.9309 36.1597M48.9886 9.27344V13.6598M57.7614 11.4666L54.4716 15.853M40.2159 11.4666L43.5057 15.853" stroke="#201812" stroke-width="3.28977" stroke-linecap="round" stroke-linejoin="round"/>
</svg>
