<svg width="42" height="47" viewBox="0 0 42 47" fill="none" xmlns="http://www.w3.org/2000/svg">
<path d="M4.75001 15.2102C6.41598 14.119 8.39341 13.5963 10.384 13.7212C12.3746 13.846 14.2705 14.6116 15.7856 15.9023C17.3006 17.1931 18.3528 18.9391 18.7833 20.8769C19.2138 22.8148 18.9993 24.8394 18.1722 26.6453C17.345 28.4512 15.9502 29.9405 14.1979 30.8886C12.4456 31.8367 10.431 32.1921 8.45802 31.9012C6.48499 31.6103 4.66054 30.6889 3.25987 29.276C1.8592 27.863 0.958282 26.0352 0.69301 24.0682C-0.145973 19.9697 -0.472372 15.041 1.16882 10.5788C2.92953 5.79876 6.83252 1.87864 13.8225 0.0580959C14.405 -0.0750809 15.0167 0.0227261 15.528 0.330776C16.0392 0.638828 16.4097 1.1329 16.561 1.70822C16.7123 2.28354 16.6324 2.89487 16.3383 3.41257C16.0442 3.93028 15.559 4.31364 14.9856 4.48137C9.33108 5.95428 6.68771 8.89551 5.48555 12.1524C5.12927 13.1244 4.88792 14.1513 4.75001 15.2125" fill="#201812"/>
<path d="M27.75 15.2102C29.416 14.119 31.3934 13.5963 33.384 13.7212C35.3746 13.846 37.2705 14.6116 38.7856 15.9023C40.3006 17.1931 41.3528 18.9391 41.7833 20.8769C42.2138 22.8148 41.9993 24.8394 41.1722 26.6453C40.345 28.4512 38.9502 29.9405 37.1979 30.8886C35.4456 31.8367 33.431 32.1921 31.458 31.9012C29.485 31.6103 27.6605 30.6889 26.2599 29.276C24.8592 27.863 23.9583 26.0352 23.693 24.0682C22.854 19.9697 22.5276 15.041 24.1688 10.5788C25.9295 5.79876 29.8325 1.87864 36.8225 0.0580959C37.405 -0.0750809 38.0167 0.0227261 38.528 0.330776C39.0392 0.638828 39.4097 1.1329 39.561 1.70822C39.7123 2.28354 39.6324 2.89487 39.3383 3.41257C39.0442 3.93028 38.559 4.31364 37.9856 4.48137C32.3311 5.95428 29.6877 8.89551 28.4856 12.1524C28.1293 13.1244 27.8879 14.1513 27.75 15.2125" fill="#201812"/>
</svg>
