<svg width="24" height="24" viewBox="0 0 24 24" fill="none" xmlns="http://www.w3.org/2000/svg">
<path d="M15.527 15.977H18.767C20.045 15.956 22 16.629 22 19.057C22 21.577 19.588 22 18.766 22H7.946C5.438 22 2 21.491 2 17.17V8.002H22V12.519M17.502 13.976L15.8 15.396C15.717 15.4686 15.6498 15.5576 15.6029 15.6575C15.5559 15.7573 15.5301 15.8657 15.527 15.976C15.5242 16.0937 15.5474 16.2105 15.5949 16.3182C15.6424 16.4259 15.7132 16.5218 15.802 16.599L17.502 17.982M2.006 7.991L2.927 5.691C3.675 3.902 4.049 3.008 4.807 2.505C5.565 2.002 6.537 2 8.48 2H15.5C17.444 2 18.416 2 19.174 2.504C19.932 3.007 20.305 3.901 21.054 5.689L22 7.995M11.963 8.001V2.001M9.963 12.001H13.963" stroke="#201812" stroke-width="1.5" stroke-linecap="round" stroke-linejoin="round"/>
</svg>
