<svg width="58" height="24" viewBox="0 0 58 24" fill="none" xmlns="http://www.w3.org/2000/svg">
<path fill-rule="evenodd" clip-rule="evenodd" d="M51.9942 12.3336C51.9942 8.9157 50.4097 6.21875 47.3812 6.21875C44.3401 6.21875 42.5 8.9157 42.5 12.3069C42.5 16.3256 44.6723 18.355 47.7902 18.355C49.3108 18.355 50.4608 17.9945 51.3297 17.4872V14.8169C50.4608 15.2709 49.4641 15.5513 48.199 15.5513C46.9596 15.5513 45.8606 15.0973 45.7201 13.5219H51.9686C51.9686 13.3483 51.9942 12.654 51.9942 12.3336ZM45.6818 11.0652C45.6818 9.55656 46.5634 8.92905 47.3685 8.92905C48.1479 8.92905 48.9785 9.55656 48.9785 11.0652H45.6818Z" fill="#635BFF"/>
<path fill-rule="evenodd" clip-rule="evenodd" d="M37.5756 6.21875C36.3233 6.21875 35.5183 6.83291 35.0711 7.26015L34.9049 6.43237H32.0938V21.9999L35.2883 21.2923L35.3011 17.5139C35.7611 17.861 36.4383 18.355 37.5628 18.355C39.8501 18.355 41.9329 16.4324 41.9329 12.2001C41.9201 8.32824 39.8117 6.21875 37.5756 6.21875ZM36.8089 15.4177C36.055 15.4177 35.6077 15.1374 35.3011 14.7902L35.2883 9.83693C35.6205 9.44974 36.0805 9.18272 36.8089 9.18272C37.9717 9.18272 38.7767 10.5445 38.7767 12.2936C38.7767 14.0826 37.9845 15.4177 36.8089 15.4177Z" fill="#635BFF"/>
<path fill-rule="evenodd" clip-rule="evenodd" d="M27.6953 5.43126L30.9026 4.7103V2L27.6953 2.70761V5.43126Z" fill="#635BFF"/>
<path d="M30.9026 6.44531H27.6953V18.1276H30.9026V6.44531Z" fill="#635BFF"/>
<path fill-rule="evenodd" clip-rule="evenodd" d="M24.2614 7.43264L24.057 6.44465H21.2969V18.127H24.4914V10.2097C25.2453 9.18165 26.5231 9.36856 26.9193 9.51543V6.44465C26.5104 6.28443 25.0153 5.9907 24.2614 7.43264Z" fill="#635BFF"/>
<path fill-rule="evenodd" clip-rule="evenodd" d="M17.865 3.54883L14.7472 4.24309L14.7344 14.9374C14.7344 16.9134 16.1527 18.3687 18.0439 18.3687C19.0917 18.3687 19.8584 18.1684 20.2801 17.9281V15.2178C19.8712 15.3914 17.8522 16.0055 17.8522 14.0295V9.28985H20.2801V6.44604H17.8522L17.865 3.54883Z" fill="#635BFF"/>
<path fill-rule="evenodd" clip-rule="evenodd" d="M9.23287 9.83693C9.23287 9.31623 9.64177 9.11597 10.319 9.11597C11.2902 9.11597 12.5169 9.42304 13.488 9.97044V6.83291C12.4274 6.39232 11.3796 6.21875 10.319 6.21875C7.72505 6.21875 6 7.63398 6 9.99715C6 13.6821 10.8557 13.0946 10.8557 14.6834C10.8557 15.2976 10.3446 15.4978 9.62899 15.4978C8.56841 15.4978 7.21392 15.0439 6.14056 14.4298V17.6073C7.32893 18.1414 8.53007 18.3684 9.62899 18.3684C12.2868 18.3684 14.1141 16.9932 14.1141 14.6033C14.1013 10.6247 9.23287 11.3323 9.23287 9.83693Z" fill="#635BFF"/>
</svg>
