<svg width="40" height="40" viewBox="0 0 40 40" fill="none" xmlns="http://www.w3.org/2000/svg">
<path d="M26.9625 34.6875C24.7875 35.7218 22.4084 36.2557 20 36.25C11.04 36.25 3.75003 28.96 3.75003 20C3.75003 16.1562 5.07128 12.5262 7.50003 9.615V12.5H10V5H2.50003V7.5H6.05253C2.95326 10.9247 1.24107 15.3812 1.25004 20C1.25004 30.3387 9.66128 38.75 20 38.75C22.7803 38.7558 25.5267 38.139 28.0375 36.945L26.9625 34.6875Z" fill="#201812"/>
<path d="M26.25 11.25C22.3 11.25 19.0613 14.3213 18.7775 18.2C17.4033 16.9461 15.6103 16.2506 13.75 16.25H8.75V21.25C8.75 25.3862 12.115 28.75 16.25 28.75H18.75V33.75H21.25V23.75H23.75C27.885 23.75 31.25 20.3862 31.25 16.25V11.25H26.25ZM16.25 26.25C13.4925 26.25 11.25 24.0075 11.25 21.25V18.75H13.75C16.5075 18.75 18.75 20.9925 18.75 23.75V24.4825L15.8837 21.6162L14.1163 23.3838L16.9825 26.25H16.25ZM28.75 16.25C28.75 19.0075 26.5075 21.25 23.75 21.25H23.0175L25.8838 18.3837L24.1162 16.6163L21.25 19.4825V18.75C21.25 15.9925 23.4925 13.75 26.25 13.75H28.75V16.25Z" fill="#201812"/>
<path d="M38.7484 20C38.7484 9.66129 30.3372 1.25004 19.9984 1.25004C17.2181 1.24425 14.4718 1.861 11.9609 3.05504L13.0359 5.31254C15.211 4.27829 17.59 3.74438 19.9984 3.75004C28.9584 3.75004 36.2484 11.04 36.2484 20C36.2484 23.8438 34.9272 27.4738 32.4984 30.385V27.5H29.9984V35H37.4984V32.5H33.9459C37.0452 29.0754 38.7574 24.6189 38.7484 20Z" fill="#201812"/>
</svg>
