<svg width="36" height="36" viewBox="0 0 36 36" fill="none" xmlns="http://www.w3.org/2000/svg">
<g clip-path="url(#clip0_5998_5929)">
<rect width="36" height="36" fill="#0052B4" fill-opacity="0.1"/>
<path d="M18 28C17.182 28 16.4 27.67 14.837 27.01C10.946 25.366 9 24.543 9 23.16V13M18 28C18.818 28 19.6 27.67 21.163 27.01C25.054 25.366 27 24.543 27 23.16V13M18 28V17.355M12 18L14 19M23 10L13 15M14.326 15.691L11.405 14.278C9.802 13.502 9 13.114 9 12.5C9 11.886 9.802 11.498 11.405 10.722L14.325 9.309C16.13 8.436 17.03 8 18 8C18.97 8 19.871 8.436 21.674 9.309L24.595 10.722C26.198 11.498 27 11.886 27 12.5C27 13.114 26.198 13.502 24.595 14.278L21.675 15.691C19.87 16.564 18.97 17 18 17C17.03 17 16.129 16.564 14.326 15.691Z" stroke="#0052B4" stroke-width="1.5" stroke-linecap="round" stroke-linejoin="round"/>
<path d="M12.6016 0.9C12.6016 0.402944 13.0045 0 13.5016 0H36.0016V23.4C36.0016 23.8971 35.5986 24.3 35.1016 24.3C34.6045 24.3 34.2016 23.8971 34.2016 23.4V1.8H13.5016C13.0045 1.8 12.6016 1.39706 12.6016 0.9Z" fill="#0052B4"/>
<path d="M23.3984 35.1C23.3984 35.5971 22.9955 36 22.4984 36H-0.00156212V12.6C-0.00156212 12.1029 0.401382 11.7 0.898438 11.7C1.39549 11.7 1.79844 12.1029 1.79844 12.6V34.2H22.4984C22.9955 34.2 23.3984 34.6029 23.3984 35.1Z" fill="#0052B4"/>
</g>
<defs>
<clipPath id="clip0_5998_5929">
<rect width="36" height="36" fill="white"/>
</clipPath>
</defs>
</svg>
