<svg width="36" height="36" viewBox="0 0 36 36" fill="none" xmlns="http://www.w3.org/2000/svg">
<g clip-path="url(#clip0_5998_5952)">
<rect width="36" height="36" fill="#FB8C00" fill-opacity="0.1"/>
<path d="M25.5 23.5C25.5 24.163 25.2366 24.7989 24.7678 25.2678C24.2989 25.7366 23.663 26 23 26C22.337 26 21.7011 25.7366 21.2322 25.2678C20.7634 24.7989 20.5 24.163 20.5 23.5C20.5 22.837 20.7634 22.2011 21.2322 21.7322C21.7011 21.2634 22.337 21 23 21C23.663 21 24.2989 21.2634 24.7678 21.7322C25.2366 22.2011 25.5 22.837 25.5 23.5ZM15.5 23.5C15.5 24.163 15.2366 24.7989 14.7678 25.2678C14.2989 25.7366 13.663 26 13 26C12.337 26 11.7011 25.7366 11.2322 25.2678C10.7634 24.7989 10.5 24.163 10.5 23.5C10.5 22.837 10.7634 22.2011 11.2322 21.7322C11.7011 21.2634 12.337 21 13 21C13.663 21 14.2989 21.2634 14.7678 21.7322C15.2366 22.2011 15.5 22.837 15.5 23.5Z" stroke="#FB8C00" stroke-width="1.5" stroke-linecap="round" stroke-linejoin="round"/>
<path d="M20.5 23.5H15.5M21 21.5V13C21 11.586 21 10.879 20.56 10.44C20.122 10 19.415 10 18 10H11C9.586 10 8.879 10 8.44 10.44C8 10.878 8 11.585 8 13V21C8 21.935 8 22.402 8.201 22.75C8.33265 22.978 8.52199 23.1674 8.75 23.299C9.098 23.5 9.565 23.5 10.5 23.5M21.5 12.5H23.301C24.131 12.5 24.546 12.5 24.89 12.695C25.234 12.889 25.447 13.245 25.874 13.957L27.573 16.787C27.785 17.141 27.891 17.319 27.946 17.515C28 17.712 28 17.918 28 18.331V21C28 21.935 28 22.402 27.799 22.75C27.6674 22.978 27.478 23.1674 27.25 23.299C26.902 23.5 26.435 23.5 25.5 23.5" stroke="#FB8C00" stroke-width="1.5" stroke-linecap="round" stroke-linejoin="round"/>
<path d="M15.327 18L16.813 16.826C17.604 16.2 18 15.888 18 15.5M18 15.5C18 15.112 17.604 14.8 16.813 14.174L15.327 13M18 15.5H11" stroke="#FB8C00" stroke-width="1.5" stroke-linecap="round" stroke-linejoin="round"/>
<path d="M12.6016 0.9C12.6016 0.402944 13.0045 0 13.5016 0H36.0016V23.4C36.0016 23.8971 35.5986 24.3 35.1016 24.3C34.6045 24.3 34.2016 23.8971 34.2016 23.4V1.8H13.5016C13.0045 1.8 12.6016 1.39706 12.6016 0.9Z" fill="#FB8C00"/>
<path d="M23.3984 35.1C23.3984 35.5971 22.9955 36 22.4984 36H-0.00156212V12.6C-0.00156212 12.1029 0.401382 11.7 0.898438 11.7C1.39549 11.7 1.79844 12.1029 1.79844 12.6V34.2H22.4984C22.9955 34.2 23.3984 34.6029 23.3984 35.1Z" fill="#FB8C00"/>
</g>
<defs>
<clipPath id="clip0_5998_5952">
<rect width="36" height="36" fill="white"/>
</clipPath>
</defs>
</svg>
