<svg width="18" height="12" viewBox="0 0 18 12" fill="none" xmlns="http://www.w3.org/2000/svg">
<path d="M7.3125 1.84364V2.76545H17.9902C17.9753 2.46818 17.9432 2.09236 17.8284 1.84364" fill="#EC1C24"/>
<path d="M17.325 0.921818H7.3125V1.84364H17.8284C17.7143 1.49973 17.5444 1.18609 17.325 0.921818Z" fill="#E6E7E8"/>
<path d="M15.1875 0H7.3125V0.921818H17.325C16.8556 0.351818 16.083 0 15.1875 0Z" fill="#EC1C24"/>
<path d="M17.9902 2.76545H7.3125V3.68727H18V3.07282C18 3.018 17.9963 2.96455 17.9947 2.91082C17.9935 2.89609 17.9918 2.85818 17.9902 2.76545Z" fill="#E6E7E8"/>
<path d="M7.3125 4.60909H18V3.68727H7.3125V4.60909Z" fill="#EC1C24"/>
<path d="M7.3125 5.53091H18V4.60909H7.3125V5.53091Z" fill="#E6E7E8"/>
<path d="M7.3125 5.53091H18V6.45273H7.3125V5.53091Z" fill="#EC1C24"/>
<path d="M0 6.45273V7.37455H18V6.45273H7.3125L0 6.45273Z" fill="#E6E7E8"/>
<path d="M0 7.37455H18V8.29636H0V7.37455Z" fill="#EC1C24"/>
<path d="M0.00140625 8.86336C0.00140625 8.86336 -0.001125 9.08673 0.005625 9.21818H17.9944C18.0023 9.08345 17.9986 8.86336 17.9986 8.86336L18 8.29636H0L0.00140625 8.86336Z" fill="#E6E7E8"/>
<path d="M2.8125 12H15.1875C16.0855 12 16.832 11.6836 17.3419 11.0618H0.655312C1.18181 11.6973 1.94231 12 2.81109 12" fill="#EC1C24"/>
<path d="M0.656719 11.0618H17.3433C17.5657 10.7877 17.7319 10.4748 17.8327 10.14H0.170156C0.27284 10.4738 0.438276 10.7863 0.658125 11.0618" fill="#E6E7E8"/>
<path d="M0.16875 10.14H17.8313C17.9234 9.84014 17.9781 9.53066 17.9944 9.21818H0.005625C0.0334688 9.53345 0.0593438 9.77155 0.16875 10.14Z" fill="#EC1C24"/>
<path d="M7.3125 0H2.8125C0.948656 0 0 1.34318 0 3V6.45273L7.3125 6.45273V0Z" fill="#176496"/>
<path d="M0.786937 1.62982L0.939937 1.51582L1.09266 1.62982L1.03331 1.44655L1.18547 1.33445H0.997594L0.939375 1.15036L0.881438 1.33445H0.693844L0.846563 1.44655L0.786937 1.62982ZM1.79775 1.62982L1.95075 1.51582L2.10347 1.62982L2.04441 1.44655L2.19628 1.33445H2.00869L1.95047 1.15036L1.89253 1.33445H1.70438L1.85709 1.44655L1.79775 1.62982ZM2.91291 1.62982L3.06563 1.51582L3.21863 1.62982L3.15928 1.44655L3.31116 1.33445H3.12469L3.06563 1.15036L3.00741 1.33445H2.82094L2.97197 1.44655L2.91291 1.62982ZM4.01991 1.62982L4.17263 1.51582L4.32562 1.62982L4.26656 1.44655L4.41844 1.33445H4.23L4.17263 1.15036L4.11469 1.33445H3.92681L4.07925 1.44655L4.01991 1.62982ZM5.13084 1.62982L5.28384 1.51582L5.43656 1.62982L5.3775 1.44655L5.52966 1.33445H5.3415L5.28356 1.15036L5.22563 1.33445H5.03803L5.18991 1.44655L5.13084 1.62982ZM1.32497 2.10845L1.47769 1.99473L1.63041 2.10845L1.57162 1.92545L1.7235 1.81336H1.53563L1.47741 1.62955L1.42031 1.81336H1.23188L1.38403 1.92545L1.32497 2.10845ZM2.33606 2.10845L2.48878 1.99473L2.6415 2.10845L2.58244 1.92545L2.73431 1.81336H2.54531L2.48878 1.62955L2.43056 1.81336H2.24297L2.39512 1.92545L2.33606 2.10845ZM3.45122 2.10845L3.60366 1.99473L3.75637 2.10845L3.69731 1.92545L3.84947 1.81336H3.66188L3.60366 1.62955L3.54544 1.81336H3.35756L3.50972 1.92545L3.45122 2.10845ZM4.55766 2.10845L4.71066 1.99473L4.86366 2.10845L4.80375 1.92545L4.95619 1.81336H4.76859L4.71037 1.62955L4.65272 1.81336H4.46484L4.617 1.92545L4.55766 2.10845ZM5.67 2.10845L5.82159 1.99473L5.97431 2.10845L5.91469 1.92545L6.06713 1.81336H5.87981L5.82131 1.62955L5.76366 1.81336H5.57578L5.72794 1.92545L5.67 2.10845ZM6.29634 1.62982L6.44906 1.51582L6.60206 1.62982L6.54272 1.44655L6.69459 1.33445H6.50812L6.44878 1.15036L6.39084 1.33445H6.20156L6.35541 1.44655L6.29634 1.62982ZM0.772031 5.46L0.925031 5.34736L1.07775 5.46L1.01869 5.27836L1.17056 5.166L0.982969 5.16655L0.924469 4.98273L0.867094 5.16655L0.678937 5.166L0.831094 5.27836L0.772031 5.46ZM1.78313 5.46L1.93584 5.34736L2.08884 5.46L2.0295 5.27836L2.18138 5.166L1.99406 5.16655L1.93556 4.98273L1.87791 5.16655L1.69031 5.166L1.84219 5.27836L1.78313 5.46ZM2.89828 5.46L3.051 5.34736L3.204 5.46L3.14466 5.27836L3.29653 5.166L3.10781 5.16655L3.05072 4.98273L2.99278 5.16655L2.80519 5.166L2.95734 5.27836L2.89828 5.46ZM4.00528 5.46L4.158 5.34736L4.31072 5.46L4.2525 5.27836L4.40353 5.166L4.21566 5.16655L4.15772 4.98273L4.09978 5.16655L3.91219 5.166L4.06406 5.27836L4.00528 5.46ZM5.11594 5.46L5.26894 5.34736L5.42194 5.46L5.36344 5.27836L5.51447 5.166L5.32688 5.16655L5.26866 4.98273L5.211 5.16655L5.02313 5.166L5.175 5.27836L5.11594 5.46ZM6.28144 5.46L6.43416 5.34736L6.58716 5.46L6.52781 5.27836L6.67997 5.166L6.49125 5.16655L6.43388 4.98273L6.37594 5.16655L6.1875 5.166L6.3405 5.27836L6.28144 5.46ZM0.786937 2.58764L0.939937 2.47364L1.09266 2.58764L1.03331 2.40436L1.18547 2.29227L0.997594 2.29282L0.939375 2.10845L0.881438 2.29282L0.693844 2.29227L0.846563 2.40436L0.786937 2.58764ZM1.79775 2.58764L1.95075 2.47364L2.10347 2.58764L2.04441 2.40436L2.19628 2.29227L2.00869 2.29282L1.95047 2.10845L1.89253 2.29282L1.70438 2.29227L1.85709 2.40436L1.79775 2.58764ZM2.91291 2.58764L3.06563 2.47364L3.21863 2.58764L3.15928 2.40436L3.31116 2.29227L3.12469 2.29282L3.06563 2.10845L3.00741 2.29282L2.82094 2.29227L2.97197 2.40436L2.91291 2.58764ZM4.01991 2.58764L4.17263 2.47364L4.32562 2.58764L4.26656 2.40436L4.41844 2.29227L4.23 2.29282L4.17263 2.10845L4.11469 2.29282L3.92681 2.29227L4.07925 2.40436L4.01991 2.58764ZM5.13084 2.58764L5.28384 2.47364L5.43656 2.58764L5.3775 2.40436L5.52966 2.29227L5.3415 2.29282L5.28356 2.10845L5.22563 2.29282L5.03803 2.29227L5.18991 2.40436L5.13084 2.58764ZM1.32497 3.06655L1.47769 2.95282L1.63041 3.06655L1.57162 2.88355L1.7235 2.77091H1.53563L1.47741 2.58764L1.42031 2.77091H1.23188L1.38403 2.88355L1.32497 3.06655ZM2.33606 3.06655L2.48878 2.95282L2.6415 3.06655L2.58244 2.88355L2.73431 2.77091H2.54531L2.48878 2.58764L2.43056 2.77091H2.24297L2.39512 2.88355L2.33606 3.06655ZM3.45122 3.06655L3.60366 2.95282L3.75637 3.06655L3.69731 2.88355L3.84947 2.77091H3.66188L3.60366 2.58764L3.54544 2.77091H3.35756L3.50972 2.88355L3.45122 3.06655ZM4.55766 3.06655L4.71066 2.95282L4.86366 3.06655L4.80375 2.88355L4.95619 2.77091H4.76859L4.71037 2.58764L4.65272 2.77091H4.46484L4.617 2.88355L4.55766 3.06655ZM5.67 3.06655L5.82159 2.95282L5.97431 3.06655L5.91469 2.88355L6.06713 2.77091H5.87981L5.82131 2.58764L5.76366 2.77091H5.57578L5.72794 2.88355L5.67 3.06655ZM6.29634 2.58764L6.44906 2.47364L6.60206 2.58764L6.54272 2.40436L6.69459 2.29227L6.50812 2.29282L6.44878 2.10845L6.39084 2.29282L6.20156 2.29227L6.35541 2.40436L6.29634 2.58764ZM0.772031 3.54545L0.925031 3.43173L1.07775 3.54545L1.01841 3.36273L1.17056 3.25036L0.982688 3.25091L0.924469 3.06655L0.867094 3.25091L0.678937 3.25036L0.831094 3.36273L0.772031 3.54545ZM1.78313 3.54545L1.93584 3.43173L2.08884 3.54545L2.0295 3.36273L2.18138 3.25036L1.99406 3.25091L1.93556 3.06655L1.87791 3.25091L1.69031 3.25036L1.84191 3.36273L1.78313 3.54545ZM2.89828 3.54545L3.051 3.43173L3.20372 3.54545L3.14466 3.36273L3.29653 3.25036L3.10781 3.25091L3.05072 3.06655L2.99278 3.25091L2.80519 3.25036L2.95734 3.36273L2.89828 3.54545ZM4.00528 3.54545L4.15772 3.43173L4.31072 3.54545L4.2525 3.36273L4.40353 3.25036L4.21566 3.25091L4.15772 3.06655L4.09978 3.25091L3.91219 3.25036L4.06406 3.36273L4.00528 3.54545ZM5.11594 3.54545L5.26894 3.43173L5.42166 3.54545L5.36344 3.36273L5.51447 3.25036L5.32659 3.25091L5.26866 3.06655L5.211 3.25091L5.02313 3.25036L5.175 3.36273L5.11594 3.54545ZM1.31006 4.02436L1.46278 3.91091L1.6155 4.02436L1.55672 3.84273L1.70831 3.72982H1.52044L1.4625 3.54545L1.40484 3.72982H1.21697L1.36913 3.84273L1.31006 4.02436ZM2.32116 4.02436L2.47387 3.91091L2.62659 4.02436L2.56753 3.84273L2.71941 3.72982H2.53125L2.47359 3.54545L2.41566 3.72982H2.22778L2.38022 3.84273L2.32116 4.02436ZM3.43659 4.02436L3.58875 3.91091L3.74175 4.02436L3.68156 3.84273L3.83456 3.72982H3.64697L3.58875 3.54545L3.53081 3.72982H3.34294L3.49509 3.84273L3.43659 4.02436ZM4.54219 4.02436L4.69575 3.91091L4.84875 4.02436L4.78969 3.84273L4.94128 3.72982H4.75369L4.69547 3.54545L4.63781 3.72982H4.44994L4.60209 3.84273L4.54219 4.02436ZM5.65313 4.02436L5.80669 3.91091L5.95969 4.02436L5.90034 3.84273L6.05278 3.72982H5.86519L5.80669 3.54545L5.74875 3.72982H5.56087L5.71303 3.84273L5.65313 4.02436ZM6.28144 3.54545L6.43416 3.43173L6.58687 3.54545L6.52781 3.36273L6.67997 3.25036L6.49125 3.25091L6.43388 3.06655L6.37594 3.25091L6.1875 3.25036L6.3405 3.36273L6.28144 3.54545ZM0.772031 4.50355L0.925031 4.39091L1.07775 4.50355L1.01841 4.32055L1.17056 4.20818L0.982688 4.20873L0.924469 4.02436L0.867094 4.20873L0.678937 4.20818L0.831094 4.32055L0.772031 4.50355ZM1.78313 4.50355L1.93584 4.39091L2.08884 4.50355L2.0295 4.32055L2.18138 4.20818L1.99406 4.20873L1.93556 4.02436L1.87791 4.20873L1.69031 4.20818L1.84191 4.32055L1.78313 4.50355ZM2.89828 4.50355L3.051 4.39091L3.20372 4.50355L3.14466 4.32055L3.29653 4.20818L3.10781 4.20873L3.05072 4.02436L2.99278 4.20873L2.80519 4.20818L2.95734 4.32055L2.89828 4.50355ZM4.00528 4.50355L4.15772 4.39091L4.31072 4.50355L4.2525 4.32055L4.40353 4.20818L4.21566 4.20873L4.15772 4.02436L4.09978 4.20873L3.91219 4.20818L4.06406 4.32055L4.00528 4.50355ZM5.11594 4.50355L5.26894 4.39091L5.42166 4.50355L5.36344 4.32055L5.51447 4.20818L5.32659 4.20873L5.26866 4.02436L5.211 4.20873L5.02313 4.20818L5.175 4.32055L5.11594 4.50355ZM1.31006 4.98273L1.46278 4.86873L1.6155 4.98273L1.55672 4.79945L1.70831 4.68818H1.52044L1.4625 4.50355L1.40484 4.68818H1.21697L1.36913 4.79945L1.31006 4.98273ZM2.32116 4.98273L2.47387 4.86873L2.62659 4.98273L2.56753 4.79945L2.71941 4.68818H2.53125L2.47359 4.50355L2.41566 4.68818H2.22778L2.38022 4.79945L2.32116 4.98273ZM3.43659 4.98273L3.58875 4.86873L3.74175 4.98273L3.68156 4.79945L3.83456 4.68818H3.64697L3.58875 4.50355L3.53081 4.68818H3.34294L3.49509 4.79945L3.43659 4.98273ZM4.54219 4.98273L4.69575 4.86873L4.84875 4.98273L4.78969 4.79945L4.94128 4.68818H4.75369L4.69547 4.50355L4.63781 4.68818H4.44994L4.60209 4.79945L4.54219 4.98273ZM5.65313 4.98273L5.80669 4.86873L5.95969 4.98273L5.90034 4.79945L6.05278 4.68818H5.86519L5.80669 4.50355L5.74875 4.68818H5.56087L5.71303 4.79945L5.65313 4.98273ZM6.28144 4.50355L6.43416 4.39091L6.58687 4.50355L6.52781 4.32055L6.67997 4.20818L6.49125 4.20873L6.43388 4.02436L6.37594 4.20873L6.1875 4.20818L6.3405 4.32055L6.28144 4.50355Z" fill="white"/>
</svg>
