<svg width="24" height="24" viewBox="0 0 24 24" fill="none" xmlns="http://www.w3.org/2000/svg">
<g clip-path="url(#clip0_5764_6453)">
<path d="M12.0044 0.480469C5.64198 0.480469 0.484375 5.63807 0.484375 12.0005C0.484375 18.3629 5.64198 23.5205 12.0044 23.5205C18.3668 23.5205 23.5244 18.3629 23.5244 12.0005C23.5244 5.63807 18.3668 0.480469 12.0044 0.480469ZM16.6904 9.91727C16.6952 10.0157 16.6964 10.1141 16.6964 10.2101C16.6964 13.2101 14.4152 16.6673 10.2416 16.6673C9.00833 16.6693 7.80073 16.3151 6.76398 15.6473C6.94037 15.6689 7.12158 15.6773 7.30518 15.6773C8.36838 15.6773 9.34638 15.3161 10.1228 14.7065C9.64964 14.6972 9.19118 14.5405 8.81131 14.2583C8.43144 13.9761 8.14907 13.5824 8.00357 13.1321C8.34336 13.1967 8.6934 13.1831 9.02717 13.0925C8.51363 12.9886 8.05181 12.7104 7.72002 12.3049C7.38824 11.8994 7.2069 11.3916 7.20678 10.8677V10.8401C7.51277 11.0093 7.86318 11.1125 8.23518 11.1245C7.75373 10.804 7.41292 10.3117 7.28243 9.74823C7.15194 9.18478 7.24164 8.59277 7.53318 8.09327C8.10312 8.79407 8.81389 9.36737 9.61946 9.77604C10.425 10.1847 11.3074 10.4197 12.2096 10.4657C12.0949 9.97884 12.1442 9.46776 12.35 9.01188C12.5557 8.55599 12.9063 8.18086 13.3473 7.94479C13.7882 7.70871 14.2948 7.62494 14.7882 7.70648C15.2817 7.78801 15.7344 8.0303 16.076 8.39567C16.5838 8.2952 17.0707 8.10893 17.516 7.84487C17.3467 8.37063 16.9924 8.81708 16.5188 9.10127C16.9686 9.04709 17.4078 8.92616 17.822 8.74247C17.5178 9.19834 17.1345 9.59619 16.6904 9.91727Z" fill="#201812"/>
</g>
<defs>
<clipPath id="clip0_5764_6453">
<rect width="24" height="24" fill="white"/>
</clipPath>
</defs>
</svg>
